<?xml version="1.0" encoding="UTF-8" standalone="no"?>
<!DOCTYPE svg PUBLIC "-//W3C//DTD SVG 1.1//EN"
 "http://www.w3.org/Graphics/SVG/1.1/DTD/svg11.dtd">
<!-- Generated by graphviz version 2.43.0 (0)
 -->
<!-- Created by https://github.com/scikit&#45;hep/decaylanguage -->
<!-- Title: DecayChainGraph Pages: 1 -->
<svg width="447pt" height="260pt"
 viewBox="0.00 0.00 447.10 260.00" xmlns="http://www.w3.org/2000/svg" xmlns:xlink="http://www.w3.org/1999/xlink">
<g id="graph0" class="graph" transform="scale(1 1) rotate(0) translate(4 256)">
<title>DecayChainGraph</title>
<polygon fill="white" stroke="transparent" points="-4,4 -4,-256 443.1,-256 443.1,4 -4,4"/>
<!-- mother -->
<g id="node1" class="node">
<title>mother</title>
<polygon fill="#568dba" stroke="transparent" points="8,-126 8,-150 79,-150 79,-126 8,-126"/>
<polygon fill="none" stroke="black" points="8.5,-126 8.5,-150 79.5,-150 79.5,-126 8.5,-126"/>
<text text-anchor="start" x="14.5" y="-136.2" font-family="Helvetica,sans-Serif" font-size="11.00">D</text>
<text text-anchor="start" x="23.5" y="-136.2" font-family="Helvetica,sans-Serif" baseline-shift="super" font-size="11.00">*</text>
<text text-anchor="start" x="28.5" y="-136.2" font-family="Helvetica,sans-Serif" font-size="11.00">(2010)</text>
<text text-anchor="start" x="65.5" y="-136.2" font-family="Helvetica,sans-Serif" baseline-shift="super" font-size="11.00">+</text>
</g>
<!-- dec4 -->
<g id="node2" class="node">
<title>dec4</title>
<polygon fill="#9abad6" stroke="transparent" points="172.2,-193 172.2,-241 200.2,-241 200.2,-193 172.2,-193"/>
<polygon fill="none" stroke="black" points="172.2,-217 172.2,-241 200.2,-241 200.2,-217 172.2,-217"/>
<text text-anchor="start" x="178.2" y="-227.2" font-family="Helvetica,sans-Serif" font-size="11.00">D</text>
<text text-anchor="start" x="187.2" y="-227.2" font-family="Helvetica,sans-Serif" baseline-shift="super" font-size="11.00">0</text>
<polygon fill="none" stroke="black" points="172.2,-193 172.2,-217 200.2,-217 200.2,-193 172.2,-193"/>
<text text-anchor="start" x="178.7" y="-203.2" font-family="Helvetica,sans-Serif" font-size="11.00">π</text>
<text text-anchor="start" x="185.7" y="-203.2" font-family="Helvetica,sans-Serif" baseline-shift="super" font-size="11.00">+</text>
</g>
<!-- mother&#45;&gt;dec4 -->
<g id="edge1" class="edge">
<title>mother&#45;&gt;dec4</title>
<path fill="none" stroke="black" d="M76.78,-156.12C98.74,-168.46 127.79,-184.76 150.29,-197.4"/>
<polygon fill="black" stroke="black" points="148.75,-200.55 159.18,-202.39 152.17,-194.44 148.75,-200.55"/>
<text text-anchor="middle" x="120.5" y="-192.2" font-family="Times,serif" font-size="11.00" fill="#4c4c4c">0.677</text>
</g>
<!-- dec6 -->
<g id="node4" class="node">
<title>dec6</title>
<polygon fill="#9abad6" stroke="transparent" points="171.7,-114 171.7,-162 200.7,-162 200.7,-114 171.7,-114"/>
<polygon fill="none" stroke="black" points="172.2,-138 172.2,-162 201.2,-162 201.2,-138 172.2,-138"/>
<text text-anchor="start" x="178.2" y="-148.2" font-family="Helvetica,sans-Serif" font-size="11.00">D</text>
<text text-anchor="start" x="187.2" y="-148.2" font-family="Helvetica,sans-Serif" baseline-shift="super" font-size="11.00">+</text>
<polygon fill="none" stroke="black" points="172.2,-114 172.2,-138 201.2,-138 201.2,-114 172.2,-114"/>
<text text-anchor="start" x="179.7" y="-124.2" font-family="Helvetica,sans-Serif" font-size="11.00">π</text>
<text text-anchor="start" x="186.7" y="-124.2" font-family="Helvetica,sans-Serif" baseline-shift="super" font-size="11.00">0</text>
</g>
<!-- mother&#45;&gt;dec6 -->
<g id="edge3" class="edge">
<title>mother&#45;&gt;dec6</title>
<path fill="none" stroke="black" d="M87.1,-138C106.89,-138 130.17,-138 149.08,-138"/>
<polygon fill="black" stroke="black" points="149.09,-141.5 159.09,-138 149.09,-134.5 149.09,-141.5"/>
<text text-anchor="middle" x="120.5" y="-141.2" font-family="Times,serif" font-size="11.00" fill="#4c4c4c">0.307</text>
</g>
<!-- dec11 -->
<g id="node9" class="node">
<title>dec11</title>
<ellipse fill="#eef3f8" stroke="black" cx="186.2" cy="-74" rx="32.4" ry="18"/>
<polygon fill="#eef3f8" stroke="transparent" points="170.2,-66 170.2,-82 202.2,-82 202.2,-66 170.2,-66"/>
<text text-anchor="start" x="172.2" y="-72.2" font-family="Helvetica,sans-Serif" font-size="11.00">D</text>
<text text-anchor="start" x="181.2" y="-72.2" font-family="Helvetica,sans-Serif" baseline-shift="super" font-size="11.00">+</text>
<text text-anchor="start" x="193.2" y="-71.2" font-family="Helvetica,sans-Serif" font-size="11.00">γ</text>
</g>
<!-- mother&#45;&gt;dec11 -->
<g id="edge8" class="edge">
<title>mother&#45;&gt;dec11</title>
<path fill="none" stroke="black" d="M84.44,-119.83C105.62,-110.2 131.36,-98.49 151.52,-89.32"/>
<polygon fill="black" stroke="black" points="152.98,-92.5 160.64,-85.17 150.08,-86.13 152.98,-92.5"/>
<text text-anchor="middle" x="120.5" y="-112.2" font-family="Times,serif" font-size="11.00" fill="#4c4c4c">0.016</text>
</g>
<!-- dec5 -->
<g id="node3" class="node">
<title>dec5</title>
<ellipse fill="#eef3f8" stroke="black" cx="382.75" cy="-234" rx="34.43" ry="18"/>
<polygon fill="#eef3f8" stroke="transparent" points="365.25,-226 365.25,-242 400.25,-242 400.25,-226 365.25,-226"/>
<text text-anchor="start" x="367.75" y="-232.2" font-family="Helvetica,sans-Serif" font-size="11.00">K</text>
<text text-anchor="start" x="375.75" y="-232.2" font-family="Helvetica,sans-Serif" baseline-shift="super" font-size="11.00">&#45;</text>
<text text-anchor="start" x="383.75" y="-232.2" font-family="Helvetica,sans-Serif" font-size="11.00">π</text>
<text text-anchor="start" x="390.75" y="-232.2" font-family="Helvetica,sans-Serif" baseline-shift="super" font-size="11.00">+</text>
</g>
<!-- dec4&#45;&gt;dec5 -->
<g id="edge2" class="edge">
<title>dec4:p0&#45;&gt;dec5</title>
<path fill="none" stroke="black" d="M201.2,-229C248,-229 301.61,-230.7 338.17,-232.12"/>
<polygon fill="black" stroke="black" points="338.35,-235.63 348.48,-232.53 338.63,-228.63 338.35,-235.63"/>
<text text-anchor="middle" x="272.4" y="-233.2" font-family="Times,serif" font-size="11.00" fill="#4c4c4c">1.0</text>
</g>
<!-- dec7 -->
<g id="node5" class="node">
<title>dec7</title>
<ellipse fill="#eef3f8" stroke="black" cx="382.75" cy="-180" rx="27" ry="18"/>
<polygon fill="#eef3f8" stroke="transparent" points="371.75,-172 371.75,-188 393.75,-188 393.75,-172 371.75,-172"/>
<text text-anchor="start" x="373.75" y="-177.2" font-family="Helvetica,sans-Serif" font-size="11.00">γ</text>
<text text-anchor="start" x="384.75" y="-177.2" font-family="Helvetica,sans-Serif" font-size="11.00">γ</text>
</g>
<!-- dec6&#45;&gt;dec7 -->
<g id="edge4" class="edge">
<title>dec6:p1&#45;&gt;dec7</title>
<path fill="none" stroke="black" d="M202.2,-126C218.98,-126 220.62,-136.3 236.4,-142 273.26,-155.32 316.94,-166.09 346.72,-172.72"/>
<polygon fill="black" stroke="black" points="346.12,-176.18 356.64,-174.89 347.62,-169.34 346.12,-176.18"/>
<text text-anchor="middle" x="272.4" y="-166.2" font-family="Times,serif" font-size="11.00" fill="#4c4c4c">0.988228297</text>
</g>
<!-- dec8 -->
<g id="node6" class="node">
<title>dec8</title>
<ellipse fill="#eef3f8" stroke="black" cx="382.75" cy="-126" rx="40.84" ry="18"/>
<polygon fill="#eef3f8" stroke="transparent" points="360.25,-118 360.25,-134 405.25,-134 405.25,-118 360.25,-118"/>
<text text-anchor="start" x="362.75" y="-124.2" font-family="Helvetica,sans-Serif" font-size="11.00">e</text>
<text text-anchor="start" x="369.75" y="-124.2" font-family="Helvetica,sans-Serif" baseline-shift="super" font-size="11.00">+</text>
<text text-anchor="start" x="381.75" y="-124.2" font-family="Helvetica,sans-Serif" font-size="11.00">e</text>
<text text-anchor="start" x="388.75" y="-124.2" font-family="Helvetica,sans-Serif" baseline-shift="super" font-size="11.00">&#45;</text>
<text text-anchor="start" x="396.75" y="-123.2" font-family="Helvetica,sans-Serif" font-size="11.00">γ</text>
</g>
<!-- dec6&#45;&gt;dec8 -->
<g id="edge5" class="edge">
<title>dec6:p1&#45;&gt;dec8</title>
<path fill="none" stroke="black" d="M202.2,-126C245.89,-126 295.56,-126 331.57,-126"/>
<polygon fill="black" stroke="black" points="331.81,-129.5 341.81,-126 331.81,-122.5 331.81,-129.5"/>
<text text-anchor="middle" x="272.4" y="-129.2" font-family="Times,serif" font-size="11.00" fill="#4c4c4c">0.011738247</text>
</g>
<!-- dec9 -->
<g id="node7" class="node">
<title>dec9</title>
<ellipse fill="#eef3f8" stroke="black" cx="382.75" cy="-72" rx="56.2" ry="18"/>
<polygon fill="#eef3f8" stroke="transparent" points="348.75,-64 348.75,-80 416.75,-80 416.75,-64 348.75,-64"/>
<text text-anchor="start" x="350.75" y="-70.2" font-family="Helvetica,sans-Serif" font-size="11.00">e</text>
<text text-anchor="start" x="357.75" y="-70.2" font-family="Helvetica,sans-Serif" baseline-shift="super" font-size="11.00">+</text>
<text text-anchor="start" x="369.75" y="-70.2" font-family="Helvetica,sans-Serif" font-size="11.00">e</text>
<text text-anchor="start" x="376.75" y="-70.2" font-family="Helvetica,sans-Serif" baseline-shift="super" font-size="11.00">+</text>
<text text-anchor="start" x="388.75" y="-70.2" font-family="Helvetica,sans-Serif" font-size="11.00">e</text>
<text text-anchor="start" x="395.75" y="-70.2" font-family="Helvetica,sans-Serif" baseline-shift="super" font-size="11.00">&#45;</text>
<text text-anchor="start" x="403.75" y="-70.2" font-family="Helvetica,sans-Serif" font-size="11.00">e</text>
<text text-anchor="start" x="410.75" y="-70.2" font-family="Helvetica,sans-Serif" baseline-shift="super" font-size="11.00">&#45;</text>
</g>
<!-- dec6&#45;&gt;dec9 -->
<g id="edge6" class="edge">
<title>dec6:p1&#45;&gt;dec9</title>
<path fill="none" stroke="black" d="M202.2,-126C218.98,-126 220.62,-115.7 236.4,-110 265.24,-99.58 298.24,-90.72 325.5,-84.18"/>
<polygon fill="black" stroke="black" points="326.34,-87.58 335.27,-81.88 324.73,-80.76 326.34,-87.58"/>
<text text-anchor="middle" x="272.4" y="-113.2" font-family="Times,serif" font-size="11.00" fill="#4c4c4c">3.3392e&#45;05</text>
</g>
<!-- dec10 -->
<g id="node8" class="node">
<title>dec10</title>
<ellipse fill="#eef3f8" stroke="black" cx="382.75" cy="-18" rx="33.58" ry="18"/>
<polygon fill="#eef3f8" stroke="transparent" points="365.75,-10 365.75,-26 399.75,-26 399.75,-10 365.75,-10"/>
<text text-anchor="start" x="367.75" y="-16.2" font-family="Helvetica,sans-Serif" font-size="11.00">e</text>
<text text-anchor="start" x="374.75" y="-16.2" font-family="Helvetica,sans-Serif" baseline-shift="super" font-size="11.00">+</text>
<text text-anchor="start" x="386.75" y="-16.2" font-family="Helvetica,sans-Serif" font-size="11.00">e</text>
<text text-anchor="start" x="393.75" y="-16.2" font-family="Helvetica,sans-Serif" baseline-shift="super" font-size="11.00">&#45;</text>
</g>
<!-- dec6&#45;&gt;dec10 -->
<g id="edge7" class="edge">
<title>dec6:p1&#45;&gt;dec10</title>
<path fill="none" stroke="black" d="M187.2,-113C187.2,-98.14 206.95,-110.47 218.4,-101 230.09,-91.33 224.66,-81.6 236.4,-72 266.63,-47.27 309.29,-33.23 340.57,-25.7"/>
<polygon fill="black" stroke="black" points="341.74,-29.02 350.71,-23.39 340.18,-22.2 341.74,-29.02"/>
<text text-anchor="middle" x="272.4" y="-75.2" font-family="Times,serif" font-size="11.00" fill="#4c4c4c">6.5e&#45;08</text>
</g>
</g>
</svg>
